<svg width="537" height="111" viewBox="0 0 537 111" fill="none" xmlns="http://www.w3.org/2000/svg">
<g clip-path="url(#clip0_3898_2065)">
<path d="M143.795 42.7775C137.912 42.7775 132.756 44.1656 127.138 46.6773L130.377 54.6093C134.21 52.7585 138.11 51.767 141.085 51.767C145.58 51.767 147.893 53.75 147.893 57.1211V57.5177H138.573C129.716 57.6499 124.89 61.5497 124.89 68.358C124.89 74.9018 129.451 79.5288 137.119 79.5288C141.944 79.5288 145.58 77.9424 147.893 74.9679V79H159.461V55.733C159.394 47.5366 153.644 42.7775 143.795 42.7775ZM140.754 71.5308C137.714 71.5308 135.929 69.9444 135.929 67.4987C135.929 64.9869 137.582 63.7971 140.887 63.7971H147.893V66.9038C147.166 69.6139 144.258 71.5308 140.754 71.5308ZM167.696 29.9542V79H179.461V29.9542H167.696ZM189.126 29.9542V79H200.892V29.9542H189.126ZM216.109 27.7729C213.003 27.7729 210.755 30.0203 210.755 33.193C210.755 36.2997 213.003 38.5471 216.109 38.5471C219.216 38.5471 221.463 36.2997 221.463 33.193C221.463 30.0203 219.216 27.7729 216.109 27.7729ZM210.226 43.2402V79H221.926V43.2402H210.226ZM254.545 42.7775C249.323 42.7775 245.225 44.9588 242.713 49.0569V43.2402H230.947V79H242.713V60.0955C243.176 56.0635 245.753 53.3534 249.719 53.2873C253.421 53.2873 255.801 55.7991 255.801 59.8311V79H267.5V56.4601C267.5 48.0654 262.344 42.7775 254.545 42.7775ZM270.21 43.2402L283.231 79H294.865L301.739 56.9228L308.547 79H320.181L333.269 43.2402H321.767L314.629 67.4326L307.556 43.2402H296.319L289.312 67.4326L282.174 43.2402H270.21ZM351.896 42.8436C340.725 42.8436 333.256 50.1806 333.256 61.2853C333.256 72.1918 340.461 79.3966 352.16 79.3966C358.77 79.3966 364.124 77.1492 367.76 73.051L361.612 66.9038C359.233 69.2834 356.258 70.5393 353.218 70.5393C349.186 70.5393 346.211 68.2919 345.088 64.2598H369.941C370.734 51.2382 364.389 42.8436 351.896 42.8436ZM344.823 57.9804C345.616 53.8822 348.128 51.106 351.962 51.106C355.928 51.106 358.572 53.8822 358.572 57.9804H344.823ZM398.598 42.8436C394.169 42.8436 390.6 44.6283 388.088 47.8671V29.9542H376.322V79H388.088V74.373C390.6 77.6119 394.301 79.3966 398.862 79.3966C408.777 79.3966 415.255 72.1918 415.255 61.2853C415.255 50.1806 408.579 42.8436 398.598 42.8436ZM395.689 69.8783C391.195 69.8783 388.088 66.3089 388.088 61.0209C388.088 55.733 391.195 52.0975 395.689 52.0975C400.316 52.0975 403.423 55.733 403.423 61.0209C403.423 66.3089 400.316 69.8783 395.689 69.8783ZM442.061 51.7009L439.748 51.3704L452.241 39.7369V32.7303H419.852L419.918 42.0504H437.765L426.924 52.428V58.9057H434.724C439.88 58.9057 442.722 60.8226 442.722 64.5242C442.722 68.1597 439.88 70.2749 434.79 70.2749C430.362 70.2749 425.999 68.2919 422.364 64.5242L417.472 73.8442C421.967 77.2814 428.973 79.5288 435.716 79.5288C447.217 79.5288 454.554 73.3154 454.554 64.392C454.554 57.3194 449.398 52.8246 442.061 51.7009ZM465.671 68.0936C462.366 68.0936 460.053 70.4071 460.053 73.7781C460.053 77.1492 462.366 79.5288 465.671 79.5288C468.976 79.5288 471.356 77.1492 471.356 73.7781C471.356 70.4071 468.976 68.0936 465.671 68.0936ZM484.187 27.7729C481.08 27.7729 478.833 30.0203 478.833 33.193C478.833 36.2997 481.08 38.5471 484.187 38.5471C487.293 38.5471 489.541 36.2997 489.541 33.193C489.541 30.0203 487.293 27.7729 484.187 27.7729ZM478.304 43.2402V79H490.003V43.2402H478.304ZM515.615 42.8436C503.85 42.8436 496.116 50.1145 496.116 61.087C496.116 72.1257 503.85 79.3966 515.615 79.3966C527.381 79.3966 535.181 72.1257 535.181 61.087C535.181 50.1145 527.381 42.8436 515.615 42.8436ZM515.615 52.3619C520.242 52.3619 523.349 55.9313 523.349 61.2192C523.349 66.5733 520.242 70.1427 515.615 70.1427C511.055 70.1427 507.948 66.5733 507.948 61.2192C507.948 55.9313 511.055 52.3619 515.615 52.3619Z" fill="white"/>
<g clip-path="url(#clip1_3898_2065)">
<path d="M106 3H0V109H106V3Z" fill="#FDCE05"/>
<g clip-path="url(#clip2_3898_2065)">
<path d="M27.6484 76.1156L37.4528 66.7721C41.8941 71.7686 46.503 74.5444 53.0916 74.5444C58.4546 74.5444 62.2465 71.4858 62.2465 66.6779V66.4788C62.2465 61.2415 57.5328 58.2457 49.5721 58.2457H43.6538L41.4332 49.1955L56.8834 33.651H36.0282V21.4375H75.2037V32.1741L58.8317 47.8024C67.62 49.2898 76.2198 53.9092 76.2198 65.9342V66.1227C76.2198 78.3362 67.3372 87.3131 52.903 87.3131C41.2656 87.3131 33.2 82.6833 27.6484 76.1156Z" fill="black"/>
</g>
</g>
</g>
<defs>
<clipPath id="clip0_3898_2065">
<rect width="537" height="111" fill="white"/>
</clipPath>
<clipPath id="clip1_3898_2065">
<rect width="106" height="106" fill="white" transform="translate(0 3)"/>
</clipPath>
<clipPath id="clip2_3898_2065">
<rect width="48.5713" height="65.8756" fill="white" transform="translate(27.6484 21.4375)"/>
</clipPath>
</defs>
</svg>
