<?xml version="1.0" encoding="utf-8"?>
<!-- Generator: Adobe Illustrator 25.0.0, SVG Export Plug-In . SVG Version: 6.00 Build 0)  -->
<svg version="1.1" id="图层_1" xmlns="http://www.w3.org/2000/svg" xmlns:xlink="http://www.w3.org/1999/xlink" x="0px" y="0px"
	 viewBox="0 0 850.39 338.18" style="enable-background:new 0 0 850.39 338.18;" xml:space="preserve">
<style type="text/css">
	.st0{fill:#606464;}
	.st1{fill:#495AE8;}
</style>
<g>
	<path class="st0" d="M238.38,171.32l-8.7,23.9c-3.58,8.13-11.1,13.71-22.84,13.71H150.4h-3.74h-10.73l10.16-27.51h14.48
		l-4.81,13.03h48.06c7.46,0,12.77-3.71,14.65-8.22l3.85-10.59c2.45-6.73-1.06-7.24-9.26-7.24h-52.2l-5.31-14.48h65.05
		C229.37,153.93,242.85,157.36,238.38,171.32z M636.55,168.4l5.28-14.48h-89.07l5.28,14.48H636.55z M545.38,174.19l5.29,14.48h78.6
		l5.28-14.48H545.38z M543.82,208.94h78.01l5.17-14.48h-88.47L543.82,208.94z M438.36,195.33l-4.99,13.61h14.17l5.43-14.84l2-5.43
		h56.66c5.98,0,11.49-1.7,15.19-3.65c3.7-1.95,6.42-5.76,8.48-10.83h-89.22L438.36,195.33z M524.67,153.93h-71.21l5.26,14.48h78.55
		c1.76-5.07,1.39-8.44-1.13-10.87C533.62,155.11,529.8,153.86,524.67,153.93z M636.93,195.33l-4.99,13.61h14.17l5.43-14.84l2-5.43
		h42.19l9.89,20.27h15.49l-9.81-20.27c5.98,0,10.17-1.48,13.88-3.44c3.7-1.95,6.96-6.7,8.7-11.04h-89.22L636.93,195.33z
		 M734.71,157.53c-2.52-2.42-6.34-3.59-11.46-3.53l-53.43-0.08h-17.78l5.28,14.48h78.53C737.6,163.33,737.22,159.96,734.71,157.53z"
		/>
	<g>
		<g>
			<g>
				<path class="st1" d="M337.05,200.45c-20.7,0.53-25.11-7.6-25.26-12.28c-0.31-10.02,11.71-21.11,30.3-23.46
					c16.37-2.08,19.93,5.34,19.93,5.34c-0.43-8.67-13.06-12.85-25.9-11.56c-15.35,1.54-37.92,11.07-36.31,31.73
					c1.49,19.07,27.03,21.97,35.73,21.97c55.28,0,104.32-43.25,104.32-78.25c0-26.87-23.18-46.82-62.86-46.82
					c-53.06,0-106.34,30.77-106.34,30.77s40.18-9.85,67.66-11.49c67.66-4.02,77.36,43.14,58.41,66.66
					C376.78,200.07,337.05,200.45,337.05,200.45z"/>
			</g>
		</g>
		<g>
			<g>
				<g>
					<g>
						<path class="st1" d="M346.44,146.82c20.7-0.53,25.11,7.6,25.26,12.28c0.31,10.02-11.71,21.11-30.3,23.46
							c-16.37,2.08-19.93-5.34-19.93-5.34c0.43,8.67,13.06,12.85,25.9,11.56c15.35-1.54,37.92-11.07,36.31-31.73
							c-1.49-19.07-27.03-21.97-35.73-21.97c-55.28,0-104.32,43.25-104.32,78.25c0,26.87,23.18,46.82,62.86,46.82
							c53.06,0,106.34-30.77,106.34-30.77s-40.18,9.85-67.66,11.49c-67.66,4.02-77.36-43.14-58.41-66.66
							C306.71,147.21,346.44,146.82,346.44,146.82z"/>
					</g>
				</g>
			</g>
		</g>
	</g>
</g>
</svg>
