<?xml version="1.0" encoding="utf-8"?>
<!-- Generator: Adobe Illustrator 26.0.2, SVG Export Plug-In . SVG Version: 6.00 Build 0)  -->
<svg version="1.1" id="Layer_1" xmlns="http://www.w3.org/2000/svg" xmlns:xlink="http://www.w3.org/1999/xlink" x="0px" y="0px"
	 viewBox="0 0 288 41.9003944" style="enable-background:new 0 0 288 41.9003944;" xml:space="preserve">
<style type="text/css">
	.st0{fill:#4D75E4;}
</style>
<g>
	<g>
		<path class="st0" d="M76.0003281,1.2983718c-1.1149902,0-2.0226822,0.3525417-2.7230148,1.0561953
			c-0.7003326,0.7047975-1.0501175,1.5782888-1.0501175,2.6199021s0.3497849,1.9148188,1.0501175,2.6187582
			s1.6080246,1.0561953,2.7230148,1.0561953c1.1142349,0,2.0226822-0.3591175,2.7222595-1.0776396
			c0.7003326-0.7176638,1.0509033-1.6260376,1.0509033-2.7245493c0-1.0141647-0.3505707-1.8590639-1.0509033-2.5346971
			C78.0230103,1.6369033,77.114563,1.2983718,76.0003281,1.2983718z"/>
		<rect x="72.966301" y="11.8174372" class="st0" width="6.068048" height="22.7279282"/>
		<polygon class="st0" points="93.6196899,27.27952 87.8238373,11.8174372 81.5619354,11.8174372 90.352211,34.5453644 
			96.6149368,34.5453644 105.443985,11.8174372 99.6093979,11.8174372 		"/>
		<path class="st0" d="M159.2761383,11.479763c-1.5557709,0-2.9889221,0.3239498-4.298584,0.9721346
			c-1.3097076,0.6478987-2.391449,1.5625629-3.2476807,2.7451353c-0.7264557-1.2103071-1.6855774-2.1332626-2.8781586-2.7665796
			c-1.1933289-0.6336031-2.5283356-0.9506903-4.0065918-0.9506903c-1.3484344,0-2.5860901,0.2536125-3.7145538,0.7605524
			c-1.1276703,0.507225-2.0804749,1.2394714-2.8583527,2.1967373v-2.6196156h-5.7958221v22.7279282h6.0680542V23.13937
			c0-1.9708595,0.4138641-3.4567947,1.2447968-4.4572353c0.8293152-0.998724,1.9443359-1.4988022,3.3450012-1.4988022
			c2.6446991,0,3.9670258,1.7884407,3.9670258,5.3647518v11.9972801h6.0680389V23.13937
			c0-1.9708595,0.4146576-3.4567947,1.2447968-4.4572353c0.8293152-0.998724,1.9570007-1.4988022,3.3838196-1.4988022
			c1.2700958,0,2.2489929,0.4434643,2.9366608,1.3303947c0.6868896,0.8869286,1.030365,2.231905,1.030365,4.0343571v11.9972801
			h6.0680389V21.5339203c0-3.3510056-0.7715912-5.8642578-2.3139343-7.5400457
			C163.9759369,12.3178005,161.8947144,11.479763,159.2761383,11.479763z"/>
		<path class="st0" d="M241.7934418,12.9373932c-1.5953369-0.9721346-3.3648071-1.4576302-5.3099365-1.4576302
			c-2.8781128,0-5.0693512,0.9858589-6.572937,2.9572897v-2.6196156h-5.7958221v30.083046l6.0680542-1.6287498v-8.1343994
			c1.5296783,1.8313293,3.6299133,2.7459908,6.300705,2.7459908c1.9451294,0,3.7145996-0.4857788,5.3099365-1.4576302
			c1.5945435-0.9712753,2.8448792-2.3371239,3.7533569-4.0972576c0.9068756-1.7601357,1.3610992-3.8090515,1.3610992-6.1470356
			c0-2.3368378-0.4542236-4.3857536-1.3610992-6.1467476C244.6383209,15.2750902,243.3879852,13.9086695,241.7934418,12.9373932z
			 M239.2651062,27.7650146c-0.9986877,1.140543-2.2759399,1.7112427-3.8317108,1.7112427
			c-1.5558167,0-2.8330231-0.5706997-3.8309326-1.7112427c-0.998642-1.140543-1.4980164-2.6676502-1.4980164-4.5836143
			c0-1.9148178,0.4993744-3.4430695,1.4980164-4.5836124c0.9979095-1.1402569,2.275116-1.7109566,3.8309326-1.7109566
			c1.5557709,0,2.8330231,0.5706997,3.8317108,1.7109566c0.9978638,1.140543,1.4972229,2.6687946,1.4972229,4.5836124
			C240.7623291,25.0973644,240.26297,26.6244717,239.2651062,27.7650146z"/>
		<path class="st0" d="M283.7409668,12.3246622c-1.2321167,0.563838-2.2110291,1.3941555-2.936676,2.4923811v-2.9996061h-5.7958374
			v22.7279282h6.0680542v-10.73036c0-2.1118183,0.492218-3.6958256,1.477417-4.7520218
			c0.98526-1.0564804,2.3471375-1.5840073,4.0841675-1.5840073c0.2334595,0,0.6868896,0.028307,1.361908,0.0840607V11.479763
			C286.3919678,11.479763,284.97229,11.7616825,283.7409668,12.3246622z"/>
		<path class="st0" d="M214.9557037,12.9373932c-1.5953369-0.9721346-3.3647919-1.4576302-5.3099213-1.4576302
			c-2.8781281,0-5.0693665,0.9858589-6.5729523,2.9572897v-2.6196156h-5.7958221v30.083046l6.0680542-1.6287498v-8.1343994
			c1.5296783,1.8313293,3.6299133,2.7459908,6.3007202,2.7459908c1.9451294,0,3.7145844-0.4857788,5.3099213-1.4576302
			c1.5945587-0.9712753,2.8448944-2.3371239,3.7533722-4.0972576c0.9068756-1.7601357,1.361084-3.8090515,1.361084-6.1470356
			c0-2.3368378-0.4542084-4.3857536-1.361084-6.1467476C217.8005981,15.2750902,216.5502625,13.9086695,214.9557037,12.9373932z
			 M212.4273682,27.7650146c-0.9986877,1.140543-2.2759399,1.7112427-3.8317108,1.7112427
			c-1.5558014,0-2.8330231-0.5706997-3.8309174-1.7112427c-0.9986572-1.140543-1.4980164-2.6676502-1.4980164-4.5836143
			c0-1.9148178,0.4993591-3.4430695,1.4980164-4.5836124c0.9978943-1.1402569,2.275116-1.7109566,3.8309174-1.7109566
			c1.5557709,0,2.8330231,0.5706997,3.8317108,1.7109566c0.9978638,1.140543,1.4972382,2.6687946,1.4972382,4.5836124
			C213.9246063,25.0973644,213.4252319,26.6244717,212.4273682,27.7650146z"/>
		<g>
			<path class="st0" d="M65.8266373,14.0144653c-1.5953751-1.6897802-3.6892357-2.5347147-6.2817001-2.5347147
				c-1.3492661,0-2.5932732,0.2321672-3.7343979,0.6970892c-1.141098,0.464922-2.1136665,1.1336784-2.916893,2.0069008V3.1904726
				l-6.0680504,1.6287374v29.726162h6.0680504V23.3086586c0-2.0283298,0.4534416-3.5557365,1.3611298-4.5836182
				c0.9076691-1.0279255,2.1255341-1.541708,3.6560097-1.541708c1.3745766,0,2.4246979,0.443491,3.1511383,1.3303833
				c0.7256699,0.8869381,1.0888977,2.2318954,1.0888977,4.0343761V34.545372h6.0680504V21.533926
				C68.2188721,18.2112122,67.421196,15.7039738,65.8266373,14.0144653z"/>
		</g>
		<path class="st0" d="M271.3344116,24.9835587h-15.8308868c0.2848816,1.4168415,0.9591217,2.5354443,2.0226898,3.356678
			c1.0627747,0.8220959,2.3851013,1.2318478,3.9670105,1.2318478c1.0888977,0,2.0551453-0.1763496,2.8979187-0.5307751
			c0.84198-0.3544273,1.6270142-0.9137287,2.3534546-1.678772l3.2279053,3.8243484
			c-1.9704285,2.4645615-4.8493652,3.6964073-8.6343689,3.6964073c-2.3605957,0-4.4481812-0.5022469-6.2627258-1.5084724
			c-1.8153534-1.0044975-3.2152405-2.4005909-4.20047-4.1848259c-0.9860229-1.785099-1.478241-3.8096523-1.478241-6.076252
			c0-2.2372093,0.4858856-4.2557106,1.4584503-6.0546417s2.3075714-3.2010756,4.0065918-4.2064362
			c1.6982269-1.0053616,3.5974579-1.5084734,5.6977081-1.5084734c2.0487976,0,3.9029236,0.4823656,5.5623779,1.4445038
			c1.6594543,0.9638672,2.9620056,2.3444014,3.9092407,4.1424665c0.9464722,1.7997952,1.4196777,3.8883171,1.4196777,6.2672977
			C271.4507446,23.2840405,271.4119873,23.8787842,271.3344116,24.9835587z M257.1368713,17.6330986
			c-0.9338074,0.8497601-1.504364,2.0115871-1.7116852,3.4837532h10.3080902
			c-0.2081299-1.4445038-0.7778931-2.5985508-1.7117004-3.4630051c-0.9337769-0.8635902-2.0748901-1.2958183-3.4225769-1.2958183
			C259.2236328,16.3580284,258.0706482,16.7824764,257.1368713,17.6330986z"/>
		<path class="st0" d="M128.3147125,25.0996552h-15.8309021c0.2848816,1.4168396,0.9591141,2.5354443,2.0226822,3.3566761
			c1.0627823,0.8220978,2.3851166,1.2318478,3.9670258,1.2318478c1.0888901,0,2.0551224-0.1763477,2.8979111-0.5307751
			c0.8419952-0.3544254,1.6270065-0.9137287,2.3534622-1.6787701l3.2279053,3.8243484
			c-1.9704514,2.4645576-4.8493729,3.6964073-8.6343842,3.6964073c-2.3605881,0-4.4481659-0.5022469-6.2627258-1.5084724
			c-1.8153458-1.0044975-3.2152405-2.4005909-4.20047-4.1848259c-0.9860153-1.785099-1.4782333-3.8096523-1.4782333-6.076252
			c0-2.2372093,0.4858856-4.2557106,1.4584503-6.0546417s2.3075714-3.2010756,4.0065918-4.2064371
			c1.6982346-1.0053606,3.5974655-1.5084734,5.6977005-1.5084734c2.0487976,0,3.9029236,0.4823656,5.5623779,1.4445038
			c1.6594543,0.9638672,2.9620132,2.3444014,3.909256,4.1424675c0.9464493,1.7997952,1.4196701,3.8883171,1.4196701,6.2672977
			C128.4310303,23.4001369,128.3922577,23.9948807,128.3147125,25.0996552z M114.1171494,17.7491951
			c-0.9337921,0.8497601-1.5043488,2.0115871-1.7116852,3.4837532h10.3080902
			c-0.2081223-1.4445038-0.7778931-2.5985508-1.7116852-3.4630051c-0.9337921-0.8635902-2.074913-1.2958183-3.4225769-1.2958183
			C116.2039337,16.4741249,115.0509415,16.8985729,114.1171494,17.7491951z"/>
		<path class="st0" d="M189.1870422,13.9937191c1.7370453,1.6759787,2.605957,4.2028389,2.605957,7.5823002v12.9695015h-5.678833
			v-2.8302574c-1.1411438,2.1117325-3.2675323,3.1680298-6.3791809,3.1680298c-1.6080627,0-3.0016479-0.2956581-4.1815796-0.8869781
			c-1.1799164-0.59132-2.0804901-1.4078217-2.7032928-2.4503689c-0.6220093-1.0416851-0.9330139-2.2243252-0.9330139-3.5487785
			c0-2.1117325,0.7320099-3.7730999,2.1976166-4.9841022c1.4648132-1.2110023,3.7273254-1.8169346,6.7875366-1.8169346h4.8233643
			c0-1.4361839-0.4028015-2.5414715-1.2060394-3.3158588c-0.8040314-0.7743893-2.0100708-1.1620121-3.6173248-1.1620121
			c-1.1158295,0-2.2110748,0.1899433-3.2873383,0.5698318c-1.0762482,0.3807487-1.9902802,0.8947163-2.7420807,1.5419006
			l-2.1778259-4.6042147c1.1403503-0.8723688,2.5086212-1.5487766,4.1032257-2.0275049
			c1.5945892-0.4787283,3.2342987-0.7185221,4.9207001-0.7185221
			C184.9603577,11.4797506,187.4492035,12.3177395,189.1870422,13.9937191z M184.0138855,29.6662712
			c0.8032379-0.5208416,1.3738098-1.2883549,1.711731-2.302536v-2.3231659h-4.1625824
			c-2.4888458,0-3.7336578,0.8869801-3.7336578,2.6609402c0,0.8448639,0.3038788,1.5143967,0.914032,2.006876
			c0.608551,0.4933395,1.4450226,0.739151,2.5086212,0.739151C182.2887115,30.4475365,183.2098694,30.187973,184.0138855,29.6662712
			z"/>
	</g>
	<g>
		<polygon class="st0" points="14.099719,34.5230865 24.530241,34.5229721 8.8845673,25.4900055 		"/>
		<path class="st0" d="M34.9191437,11.8529634l-2.6839027-4.6486397l5.9474983-0.0142684
			c-0.7321587-1.2684908-2.0854568-2.0498228-3.5499077-2.0500312l-3.568882,0.0002084l-1.7842617-3.0908449
			c-0.7324085-1.2681499-2.0857143-2.0494759-3.5503368-2.0492995l2.9613819,5.1578126h-5.3677826L21.454195,8.3946781
			c-7.7123547-1.3118567-15.7694788,2.1882372-19.9101639,9.3601074C0.9096853,18.8535118,0.3973021,19.9890194,0,21.1454678
			l11.4955845-0.0090771l15.5017967,8.9499683l5.7398663,9.9560375c0.80196-0.921608,1.5283813-1.9322052,2.1621284-3.029892
			c4.140686-7.171875,3.1432953-15.8995914-1.8489876-21.9227638L34.9191437,11.8529634z M27.1439323,25.2643032
			l-4.3866978-2.5326595l-2.7746563-1.6019516l-4.4348402-2.5604591l2.4186945-4.1892986l11.5961952,6.6950626
			L27.1439323,25.2643032z"/>
	</g>
</g>
</svg>
