<svg width="500" height="180" viewBox="0 0 500 180" fill="none" xmlns="http://www.w3.org/2000/svg">
<path d="M65.7849 80.2613C65.9414 72.461 61.5232 65.6627 59.2269 64.0267C59.2153 64.02 59.0099 63.9051 59.0276 64.2101C59.0276 64.2144 59.024 64.2156 59.024 64.2193C58.7886 78.9548 51.2139 82.9237 47.1001 88.3287C37.9591 100.338 45.5876 114.036 55.4701 116.63C55.6352 116.673 56.0932 116.807 56.9594 116.986C57.4103 117.079 57.5451 116.697 57.2143 116.123C56.0289 114.067 53.9277 110.599 53.5169 106.147C52.5632 95.8105 65.6021 89.3405 65.7843 80.2625L65.7849 80.2613Z" fill="white"/>
<path d="M70.7696 85.2583C70.6903 85.2018 70.5819 85.2051 70.5703 85.3078C70.3624 87.181 68.4202 91.0705 65.8708 94.7068C57.2776 106.964 61.6048 112.519 64.9654 116.376C65.5872 117.09 65.8947 116.934 66.2187 116.422C66.525 115.938 66.9859 115.323 68.9716 114.381C69.2859 114.233 76.7835 110.254 77.5954 101.189C78.3816 92.4106 72.7522 86.8656 70.769 85.2583H70.7696Z" fill="white"/>
<path fill-rule="evenodd" clip-rule="evenodd" d="M109.705 77.5332V92.9314H94.9235V79.5144C94.9235 78.42 94.0603 77.5332 92.9952 77.5332H88.0061V114.228C88.0061 115.322 88.8698 116.209 89.9344 116.209H94.9235V99.1424H109.705V114.228C109.705 115.322 110.569 116.209 111.634 116.209H116.623V79.5144C116.623 78.42 115.759 77.5332 114.694 77.5332H109.705Z" fill="white"/>
<path fill-rule="evenodd" clip-rule="evenodd" d="M139.313 86.6392V104.988C139.313 106.655 138.469 108.235 137.037 109.069C133.04 111.397 128.905 108.49 128.905 104.655V88.6222C128.905 87.5265 128.024 86.6387 126.937 86.6387H121.826H121.826V105.309C121.826 111.316 126.701 116.231 132.66 116.231H135.557C141.516 116.231 146.391 111.316 146.391 105.309V88.6222C146.391 87.5265 145.51 86.6387 144.424 86.6387H139.313V86.6392Z" fill="white"/>
<path fill-rule="evenodd" clip-rule="evenodd" d="M217.848 116.21H222.852V90.1867C222.852 89.0894 221.986 88.2002 220.918 88.2002H215.915V114.223C215.915 115.32 216.78 116.21 217.848 116.21Z" fill="white"/>
<path fill-rule="evenodd" clip-rule="evenodd" d="M219.427 85.2511C221.558 85.2511 223.285 83.5235 223.285 81.3921C223.285 79.2608 221.558 77.5332 219.427 77.5332C217.295 77.5332 215.567 79.2608 215.567 81.3921C215.567 83.5235 217.295 85.2511 219.427 85.2511Z" fill="white"/>
<path fill-rule="evenodd" clip-rule="evenodd" d="M171.24 103.939C171.24 107.465 168.398 109.812 164.924 109.812C161.45 109.812 158.608 107.465 158.608 103.939V98.9086C158.608 95.3832 161.45 93.0362 164.924 93.0362C168.398 93.0362 171.24 95.3832 171.24 98.9086V103.939ZM164.924 86.6387C157.58 86.6387 151.57 91.9707 151.57 99.4239V103.455C151.57 110.909 157.58 116.209 164.924 116.209C172.269 116.209 178.279 110.909 178.279 103.455V99.4239C178.279 91.9707 172.269 86.6387 164.924 86.6387Z" fill="white"/>
<path fill-rule="evenodd" clip-rule="evenodd" d="M203.281 103.948C203.281 107.471 200.419 109.816 196.923 109.816C193.427 109.816 190.566 107.471 190.566 103.948V98.9201C190.566 95.3971 193.427 93.0517 196.923 93.0517C200.419 93.0517 203.281 95.3971 203.281 98.9201V103.948ZM196.923 86.6585C194.613 86.6585 192.434 87.1787 190.53 88.1219V79.5122C190.53 78.4193 189.65 77.5332 188.565 77.5332H183.482V103.464C183.482 110.913 189.531 116.209 196.923 116.209C204.316 116.209 210.364 110.913 210.364 103.464V99.4351C210.364 91.9869 204.316 86.6585 196.923 86.6585Z" fill="white"/>
<path d="M264.746 89.4909C264.746 82.9234 259.715 77.5332 251.211 77.5332H236.77V114.326C236.77 114.851 236.978 115.354 237.349 115.724C237.719 116.095 238.223 116.303 238.747 116.303H243.99V101.435H250.089L257.668 114.547C257.978 115.082 258.423 115.527 258.959 115.836C259.495 116.146 260.103 116.309 260.722 116.308H266.356L256.891 100.506C261.922 98.6891 264.746 94.4303 264.746 89.4909ZM243.99 94.973V84.0133C244.471 83.9037 244.964 83.8466 245.457 83.8432H251.731C255.313 83.8432 257.709 86.3865 257.709 89.4909C257.709 92.5953 255.323 95.1432 251.731 95.1432H245.457C244.964 95.1397 244.471 95.0827 243.99 94.973Z" fill="white"/>
<path d="M362.853 86.5381C361.284 86.5433 359.716 86.6524 358.162 86.8646C356.869 87.0348 355.044 87.2831 353.774 87.5821C353.259 87.7017 353.167 88.1064 353.167 88.5893V92.4479C353.167 93.1332 353.167 93.7587 353.885 93.5839C355.264 93.2528 357.877 92.6641 358.594 92.5491C359.811 92.3558 361.041 92.2619 362.273 92.2686C364.292 92.2686 365.838 92.6273 366.872 93.3448C367.907 94.0622 368.307 95.2902 368.307 97.1344V97.3598L367.125 97.2632C366.322 97.2111 365.289 97.185 364.026 97.185C362.346 97.171 360.67 97.3594 359.036 97.7461C357.531 98.1005 356.097 98.7069 354.795 99.5398C353.576 100.326 352.556 101.384 351.815 102.63C351.065 103.939 350.684 105.427 350.711 106.935C350.664 108.413 350.979 109.88 351.631 111.208C352.265 112.407 353.194 113.424 354.331 114.165C355.6 114.974 357.013 115.534 358.493 115.816C360.238 116.158 362.013 116.324 363.791 116.308C365.208 116.308 375.39 116.165 375.39 111.318V97.3414C375.39 93.6207 374.291 90.8566 372.12 89.1228C369.949 87.3889 366.886 86.5381 362.853 86.5381ZM368.294 110.334C367.685 110.452 367.071 110.538 366.454 110.591C364.86 110.758 363.253 110.769 361.657 110.623C361.018 110.574 360.394 110.404 359.817 110.122C359.287 109.859 358.833 109.465 358.497 108.977C358.117 108.341 357.937 107.606 357.982 106.866C357.982 105.431 358.493 104.41 359.546 103.73C360.599 103.049 362.361 102.653 364.573 102.653C365.171 102.653 365.902 102.686 366.767 102.759C367.332 102.801 367.843 102.847 368.275 102.888L368.294 110.334Z" fill="white"/>
<path d="M415.889 86.2246C406.69 86.2246 400.252 92.5714 400.252 101.655C400.252 110.006 406.746 116.307 415.36 116.307C421.182 116.307 424.783 114.008 424.783 111.883V106.976H424.411C424.411 106.976 421.421 109.974 416.132 109.974C410.728 109.974 407.633 106.64 407.633 100.836C407.633 95.9563 411.041 92.5576 415.912 92.5576C418.312 92.5576 422.056 92.8013 424.328 95.5608H424.866V89.8579C424.885 87.8849 420.764 86.2246 415.889 86.2246Z" fill="white"/>
<path d="M293.553 94.6628C293.066 93.1122 292.263 91.6794 291.194 90.4546C290.124 89.2453 288.8 88.2873 287.317 87.6491C285.63 86.9472 283.814 86.6027 281.987 86.6373C279.88 86.5908 277.789 87.0019 275.856 87.8423C274.19 88.5955 272.711 89.7073 271.524 91.0985C270.355 92.5082 269.489 94.1423 268.976 95.8999C268.424 97.7957 268.149 99.7616 268.162 101.736C268.143 103.718 268.429 105.691 269.008 107.586C269.551 109.341 270.483 110.951 271.735 112.296C273.057 113.675 274.677 114.733 276.472 115.386C278.858 116.214 281.401 116.489 283.909 116.191C288.596 115.575 290.651 113.795 292.04 111.914C294.501 108.593 293.797 108.019 293.797 108.019H288.407C287.795 108.019 286.531 110.539 282.548 110.539C279.816 110.539 278.758 110.116 277.401 108.865C276.164 107.733 275.461 105.944 275.295 103.539H293.691C294.202 103.539 294.326 103.208 294.344 102.707C294.418 100.632 294.538 97.7672 293.553 94.6628ZM287.602 98.2409H275.415C275.612 96.6526 276.26 95.154 277.282 93.9223C278.326 92.7633 279.811 92.1977 281.826 92.1977C282.714 92.1734 283.596 92.3561 284.401 92.7312C285.09 93.0675 285.694 93.553 286.172 94.1523C286.66 94.7906 287.025 95.5143 287.248 96.2863C287.439 96.9224 287.558 97.5781 287.602 98.2409Z" fill="white"/>
<path d="M346.51 94.6628C346.023 93.1122 345.219 91.6794 344.151 90.4546C343.081 89.2453 341.757 88.2873 340.274 87.6491C338.586 86.9472 336.771 86.6027 334.944 86.6373C332.837 86.5908 330.746 87.0019 328.813 87.8423C327.147 88.5955 325.667 89.7073 324.481 91.0985C323.313 92.5082 322.446 94.1423 321.933 95.8999C321.38 97.7957 321.106 99.7616 321.119 101.736C321.1 103.718 321.385 105.691 321.965 107.586C322.508 109.341 323.44 110.951 324.692 112.296C326.014 113.675 327.634 114.733 329.429 115.386C331.815 116.214 334.358 116.489 336.866 116.191C341.553 115.575 343.608 113.795 344.997 111.914C347.458 108.593 346.754 108.019 346.754 108.019H341.364C340.752 108.019 339.488 110.539 335.505 110.539C332.773 110.539 331.715 110.116 330.358 108.865C329.121 107.733 328.418 105.944 328.252 103.539H346.648C347.159 103.539 347.283 103.208 347.301 102.707C347.375 100.632 347.495 97.7672 346.51 94.6628ZM340.559 98.2409H328.372C328.569 96.6526 329.217 95.154 330.239 93.9223C331.283 92.7633 332.768 92.1977 334.783 92.1977C335.671 92.1734 336.553 92.3561 337.358 92.7312C338.047 93.0675 338.651 93.553 339.129 94.1523C339.617 94.7906 339.982 95.5143 340.205 96.2863C340.396 96.9224 340.515 97.5781 340.559 98.2409Z" fill="white"/>
<path d="M444.129 86.4417C441.37 86.4417 438.307 87.104 437.801 88.5205V79.5201C437.801 78.9939 437.593 78.4892 437.221 78.1168C436.849 77.7443 436.345 77.5344 435.819 77.5332H430.387V114.326C430.389 114.852 430.598 115.356 430.971 115.728C431.343 116.1 431.848 116.308 432.374 116.308H437.746V99.7515C437.746 94.6143 440.721 92.8805 442.993 92.8805C446.185 92.8805 448.784 94.7753 448.784 99.5354V114.326C448.784 114.852 448.992 115.356 449.364 115.728C449.736 116.099 450.24 116.308 450.766 116.308H456.087V99.2088C456.087 90.9304 451.649 86.4417 444.129 86.4417Z" fill="white"/>
<path d="M391.147 86.7119C383.706 86.7119 380.721 92.1113 380.721 97.7498V114.256C380.721 114.8 380.937 115.322 381.321 115.706C381.706 116.091 382.228 116.307 382.772 116.307H387.794V99.0283C387.794 96.2688 388.516 94.5809 389.859 93.7163C390.922 92.8793 393 92.2998 397.015 93.8405V89.0713C396.997 88.1652 395.479 86.7119 391.147 86.7119Z" fill="white"/>
<path d="M309.461 99.0058C306.587 97.879 305.469 97.1983 305.037 96.8258C304.765 96.581 304.553 96.278 304.416 95.9394C304.279 95.6008 304.221 95.2356 304.246 94.8712C304.238 94.4639 304.339 94.0619 304.538 93.7064C304.736 93.3508 305.026 93.0544 305.377 92.8476C306.376 92.2315 307.539 91.9318 308.711 91.9875C311.013 91.9581 313.274 92.5972 315.219 93.8272L316.139 94.4067C316.254 94.4067 316.36 94.3055 316.392 94.0342V88.4048C314.043 87.2573 311.459 86.6715 308.845 86.694C305.86 86.7492 303.28 87.4988 301.192 88.9613C300.138 89.6419 299.275 90.5795 298.684 91.6858C298.092 92.7921 297.792 94.0308 297.812 95.2851C297.768 96.9803 298.3 98.6402 299.32 99.9946C300.313 101.292 302.342 102.538 305.543 103.807C307.962 104.695 309.571 105.458 310.321 106.075C310.627 106.31 310.874 106.614 311.041 106.962C311.208 107.311 311.291 107.694 311.282 108.08C311.282 109.326 310.776 111.092 306.398 110.987C303.43 110.894 300.538 110.022 298.014 108.457C298.014 108.457 297.853 108.36 297.853 108.875V114.252C297.879 114.338 297.923 114.418 297.983 114.485C298.042 114.552 298.116 114.606 298.198 114.643C300.611 115.793 303.261 116.361 305.934 116.303C309.328 116.303 312.147 115.54 314.313 114.04C315.381 113.346 316.252 112.389 316.845 111.262C317.437 110.135 317.731 108.875 317.698 107.602C317.745 105.791 317.108 104.029 315.914 102.667C314.745 101.374 312.611 100.169 309.461 99.0058Z" fill="white"/>
</svg>
