<svg width="1996" height="1996" viewBox="0 0 1996 1996" fill="none" xmlns="http://www.w3.org/2000/svg">
<path fill-rule="evenodd" clip-rule="evenodd" d="M983.214 700.448C1228.18 700.448 1426.77 899.035 1426.77 1144C1426.77 1388.97 1413 1661.49 983.214 1661.49C744.083 1661.49 614.172 1508.25 564.145 1328.3C488.328 1321.96 428.77 1258.42 428.77 1180.97C428.77 1107.29 482.659 1046.2 553.172 1034.96C601.755 842.717 775.87 700.448 983.214 700.448ZM546.79 1154.25L562.097 1211.38L546.79 1154.25Z" fill="white"/>
<path d="M546.79 1154.25L562.097 1211.38M983.214 700.448C1228.18 700.448 1426.77 899.035 1426.77 1144C1426.77 1388.97 1413 1661.49 983.214 1661.49C744.083 1661.49 614.172 1508.25 564.145 1328.3C488.328 1321.96 428.77 1258.42 428.77 1180.97C428.77 1107.29 482.659 1046.2 553.172 1034.96C601.755 842.717 775.87 700.448 983.214 700.448Z" stroke="black" stroke-width="24" stroke-linecap="round" stroke-linejoin="round"/>
<path d="M1178.71 1101.1C1223.19 1178.52 1243.7 1232.08 1240.24 1261.76C1236.79 1291.45 1209.02 1300.25 1156.94 1288.16" stroke="black" stroke-width="16" stroke-linecap="round" stroke-linejoin="round"/>
<path d="M1057.14 1421.23C1082.6 1431.08 1107.24 1436.01 1131.07 1436.01C1154.89 1436.01 1179.53 1431.08 1204.99 1421.23" stroke="black" stroke-width="16" stroke-linecap="round" stroke-linejoin="round"/>
<path d="M1378.82 999.35C1353.53 1016.63 1334.27 1026.74 1321.03 1029.68C1307.78 1032.61 1286.49 1031.49 1257.15 1026.31" stroke="black" stroke-width="12" stroke-linecap="round" stroke-linejoin="round"/>
<path d="M986.809 999.35C1012.1 1016.63 1031.36 1026.74 1044.6 1029.68C1057.84 1032.61 1079.14 1031.49 1108.48 1026.31" stroke="black" stroke-width="12" stroke-linecap="round" stroke-linejoin="round"/>
<path fill-rule="evenodd" clip-rule="evenodd" d="M1150.08 935.392C1150.08 935.392 1151.3 912.093 1144.7 908.731C1138.09 905.371 1032.53 881.75 1001.91 883.663C971.298 885.576 929.16 913.263 929.16 913.263C929.16 913.263 972.606 896.48 1011.27 900.357C1049.93 904.234 1150.08 935.392 1150.08 935.392Z" fill="black" stroke="black" stroke-width="4" stroke-linecap="round" stroke-linejoin="round"/>
<path fill-rule="evenodd" clip-rule="evenodd" d="M1210 935.392C1210 935.392 1208.78 912.093 1215.39 908.731C1221.99 905.371 1327.56 881.75 1358.17 883.663C1388.79 885.576 1430.93 913.263 1430.93 913.263C1430.93 913.263 1387.48 896.48 1348.82 900.357C1310.16 904.234 1210 935.392 1210 935.392Z" fill="black" stroke="black" stroke-width="4" stroke-linecap="round" stroke-linejoin="round"/>
<path fill-rule="evenodd" clip-rule="evenodd" d="M1148.29 968.321C1158.73 924.835 1146.55 877.87 1007.39 877.87C868.24 877.87 861.282 933.532 856.064 968.321C850.846 1003.11 831.712 1137.05 962.169 1142.26C1092.63 1147.48 1137.85 1011.81 1148.29 968.321Z" fill="#0C0C0C" stroke="black" stroke-width="8" stroke-linecap="round" stroke-linejoin="round"/>
<path fill-rule="evenodd" clip-rule="evenodd" d="M1215.5 968.321C1205.06 924.835 1217.24 877.87 1356.39 877.87C1495.55 877.87 1502.51 933.532 1507.73 968.321C1512.94 1003.11 1532.08 1137.05 1401.62 1142.26C1271.16 1147.48 1225.94 1011.81 1215.5 968.321Z" fill="#0C0C0C" stroke="black" stroke-width="8" stroke-linecap="round" stroke-linejoin="round"/>
<path d="M1099.59 891.786H1264.83" stroke="black" stroke-width="8" stroke-linecap="round" stroke-linejoin="round"/>
<path d="M1099.59 943.969C1127.76 941.649 1155.6 940.49 1183.08 940.49C1210.56 940.49 1237.81 941.649 1264.83 943.969" stroke="black" stroke-width="8" stroke-linecap="round" stroke-linejoin="round"/>
<path d="M943.45 956.543L543.034 1027.15" stroke="black" stroke-width="16" stroke-linecap="round" stroke-linejoin="round"/>
<path fill-rule="evenodd" clip-rule="evenodd" d="M919.106 556.769C1000.98 545.263 1070.4 557.649 1074.17 584.434L1074.09 583.919C1201.46 602.321 1261.55 653.542 1291.85 689.359C1318.96 721.393 1332.51 757.741 1332.51 798.4L1307.42 796.313C1277.56 793.857 1185.98 760.334 1162.05 758.58C1166.22 769.857 1169.24 781.735 1171.09 794.214L1166.79 791.174C1133.23 767.614 1111.65 756.033 1102.05 756.434L1101.76 756.451C1096.94 756.787 1091.28 755.826 1084.79 753.564L1079.22 753.277C1076.8 753.155 1074.44 753.045 1072.17 752.941L1073.69 754.569C1078.4 759.642 1082.05 763.91 1084.61 767.373C1089.05 773.35 1092.18 779.492 1094.02 785.797C1069.08 773.444 953.644 728.17 870.477 744.804C827.365 753.425 781.212 793.061 743.995 785.803C728.19 794.648 713.765 806.946 700.994 823.391C657.186 879.802 700.447 921.132 700.447 953.644L700.438 955.007C700.133 978.254 692.443 1060.48 677.368 1201.68L676.422 1210.54L606.408 1043.88H530.688C502.289 938.392 495.499 866.14 510.315 827.124C528.183 780.074 617.517 662.291 775.747 611.199C797.987 591.986 861.318 564.89 919.106 556.769Z" fill="black" stroke="black" stroke-width="12" stroke-linecap="round" stroke-linejoin="round"/>
</svg>
