<svg width="2010" height="478" viewBox="0 0 2010 478" fill="none" xmlns="http://www.w3.org/2000/svg">
<path d="M309.171 45.8867L31.9688 356.564" stroke="white" stroke-width="14.182"/>
<path d="M613.078 111.332L31.9688 356.564" stroke="white" stroke-width="14.182"/>
<path d="M313.309 435.175L31.2168 356.941" stroke="white" stroke-width="14.182"/>
<path d="M316.694 42.877L226.049 278.706" stroke="white" stroke-width="14.182"/>
<path d="M327.226 429.155L227.93 275.697" stroke="white" stroke-width="14.182"/>
<path d="M315.941 32.7227L613.83 89.141" stroke="white" stroke-width="14.182"/>
<path d="M315.191 29.3359L590.137 248.991" stroke="white" stroke-width="14.182"/>
<path d="M634.143 133.523L589.385 250.121" stroke="white" stroke-width="14.182"/>
<path d="M320.084 26.7051L335.129 444.953" stroke="white" stroke-width="14.182"/>
<path d="M623.985 122.24L333.242 443.825" stroke="white" stroke-width="14.182"/>
<path d="M570.577 264.037L346.408 432.916" stroke="white" stroke-width="14.182"/>
<circle cx="652.57" cy="95.5353" r="58.299" fill="#FFC107"/>
<circle cx="334.557" cy="433.856" r="43.4421" fill="#2196F4"/>
<circle cx="320.646" cy="31.4062" r="31.4062" fill="#F34335"/>
<circle cx="226.617" cy="274.004" r="31.4062" fill="#9C27AF"/>
<circle cx="31.4062" cy="357.881" r="31.4062" fill="#F34335"/>
<circle cx="589.947" cy="254.07" r="31.4062" fill="#8BC349"/>
<path d="M845.466 53.8765V203H880.141V108.548L914.815 188.109H940.343L975.018 108.548L975.231 203H1009.69V53.8765H967.147L927.579 140.883L888.012 53.8765H845.466ZM1038.67 53.8765V203H1158.43V171.941H1077.6V143.861L1148.65 143.648V112.803H1077.6V84.9351H1156.31V53.8765H1038.67ZM1284.97 99.8261L1299.64 68.9803C1284.12 58.982 1261.99 52.1747 1240.08 52.1747C1204.13 52.1747 1180.52 69.8313 1180.52 97.6988C1180.52 150.456 1259.01 135.139 1259.01 160.454C1259.01 168.325 1251.78 172.58 1240.29 172.58C1224.76 172.58 1201.58 163.22 1186.26 150.03L1171.16 180.451C1189.03 195.129 1214.98 204.276 1239.87 204.276C1273.05 204.276 1299.86 188.747 1299.86 158.327C1299.86 104.719 1221.36 118.759 1221.36 94.0824C1221.36 87.2751 1227.53 83.8714 1236.89 83.8714C1249.23 83.8714 1269.22 90.8915 1284.97 99.8261ZM1390.8 52.8129C1344.63 52.8129 1310.17 84.9351 1310.17 128.332C1310.17 171.941 1344.63 204.702 1390.8 204.702C1436.96 204.702 1471.42 171.941 1471.42 128.332C1471.42 85.1478 1436.96 52.8129 1390.8 52.8129ZM1391.22 85.9987C1413.56 85.9987 1431.43 104.293 1431.43 128.545C1431.43 152.796 1413.56 171.516 1391.22 171.516C1369.1 171.516 1350.16 152.796 1350.16 128.545C1350.16 104.293 1368.89 85.9987 1391.22 85.9987ZM1490.72 53.8765V203H1527.09V113.654L1594.74 203H1628.78V53.8765H1592.62V143.648L1524.97 53.8765H1490.72ZM1669.44 167.9C1658.8 167.9 1651.36 175.345 1651.36 186.194C1651.36 197.044 1658.8 204.702 1669.44 204.702C1680.08 204.702 1687.73 197.044 1687.73 186.194C1687.73 175.345 1680.08 167.9 1669.44 167.9ZM845.466 276.877V426H881.842V336.654L949.49 426H983.527V276.877H947.363V366.648L879.715 276.877H845.466ZM1012.7 276.877V426H1132.47V394.941H1051.63V366.861L1122.68 366.648V335.803H1051.63V307.935H1130.34V276.877H1012.7ZM1143.27 276.877V308.999H1187.52V426H1226.45V308.999H1271.12V276.877H1143.27ZM1272.03 276.877L1320.96 426H1360.95L1388.61 325.379L1415.41 426H1455.62L1504.76 276.877H1464.76L1436.68 384.73L1408.39 276.877H1370.31L1342.23 384.73L1313.94 276.877H1272.03ZM1588.36 275.813C1542.2 275.813 1507.74 307.935 1507.74 351.332C1507.74 394.941 1542.2 427.702 1588.36 427.702C1634.52 427.702 1668.99 394.941 1668.99 351.332C1668.99 308.148 1634.52 275.813 1588.36 275.813ZM1588.79 308.999C1611.12 308.999 1628.99 327.293 1628.99 351.545C1628.99 375.796 1611.12 394.516 1588.79 394.516C1566.66 394.516 1547.73 375.796 1547.73 351.545C1547.73 327.293 1566.45 308.999 1588.79 308.999ZM1821.88 426L1790.82 377.285C1808.05 368.35 1817.41 351.757 1817.41 329.208C1817.41 296.022 1794.86 276.877 1755.29 276.877H1688.28V426H1727.21V384.73H1755.29H1756.14L1777.84 426H1821.88ZM1727.21 307.935H1755.5C1771.25 307.935 1780.39 315.806 1780.39 330.484C1780.39 345.588 1771.25 353.672 1755.5 353.672H1727.21V307.935ZM1985.6 426L1926.89 338.568L1982.2 276.877H1937.1L1881.15 339.419V276.877H1842.22V426H1881.15V389.623L1900.3 368.35L1939.01 426H1985.6Z" fill="white"/>
</svg>
